<svg width="53" height="60" viewBox="0 0 53 60" fill="none" xmlns="http://www.w3.org/2000/svg">
<path d="M38.9318 0C32.6248 0 27.3381 4.90476 25.5593 11.6033H3.08394C1.42106 11.6033 0.0695625 13.1917 0.0695625 15.1327V25.5001C0.0695625 26.4996 0.433938 27.3907 1.01031 28.0338C0.696149 28.3582 0.443843 28.7563 0.269784 29.2021C0.0957258 29.648 0.00380736 30.1317 0 30.6218L0 40.9892C0.00205993 41.4707 0.0893606 41.9465 0.256401 42.3865C0.423442 42.8266 0.666603 43.2215 0.970563 43.5462C0.666826 43.872 0.423851 44.2676 0.256846 44.7082C0.0898415 45.1489 0.00240181 45.6251 0 46.1071L0 56.4745C0 58.4193 1.35813 60 3.021 60H40.0216C40.8211 60 41.5878 59.6286 42.1531 58.9674C42.7184 58.3062 43.036 57.4095 43.036 56.4745V46.1071C43.0336 45.6251 42.9462 45.1489 42.7792 44.7082C42.6122 44.2676 42.3692 43.872 42.0654 43.5462C42.3694 43.2215 42.6126 42.8266 42.7796 42.3865C42.9466 41.9465 43.0339 41.4707 43.036 40.9892V32.1056C48.7832 30.0446 53 23.8536 53 16.4577C52.9965 12.0948 51.5133 7.91165 48.8759 4.82624C46.2384 1.74083 42.6622 0.0051285 38.9318 0V0ZM38.9318 1.93711C42.2229 1.94224 45.3779 3.47385 47.7047 6.19598C50.0315 8.91812 51.3402 12.6085 51.3438 16.4577C51.3394 20.3062 50.0303 23.9956 47.7035 26.7169C45.3768 29.4382 42.2223 30.9692 38.9318 30.9744C35.6407 30.9703 32.4854 29.4396 30.158 26.7182C27.8305 23.9968 26.5209 20.3068 26.5166 16.4577C26.5201 12.6078 27.8292 8.91686 30.1568 6.19461C32.4843 3.47237 35.6402 1.94121 38.9318 1.93711V1.93711ZM38.1799 8.27533V21.13L34.5593 17.1667L33.4264 18.5807L38.4449 24.0628C38.5969 24.231 38.7987 24.324 39.008 24.3223C39.2225 24.3239 39.4291 24.2281 39.5844 24.055L44.4703 18.573L43.3275 17.1783L39.8361 21.0912V8.2792H38.1799V8.27533ZM3.08394 13.5365H25.1121C24.9539 14.4995 24.8697 15.4771 24.8603 16.4577C24.8603 20.5334 26.1853 24.2139 28.2888 27.0885H3.08063C2.72043 27.0885 2.37498 26.9212 2.12029 26.6233C1.86559 26.3254 1.7225 25.9214 1.7225 25.5001V15.1366C1.7225 14.2571 2.332 13.5404 3.08063 13.5404L3.08394 13.5365ZM5.81344 19.3478V21.285H19.0535V19.3478H5.81344ZM3.021 29.0218H29.9682C32.4128 31.4083 35.5067 32.9076 38.9318 32.9076C39.7699 32.9076 40.5848 32.7797 41.3831 32.6132V40.9815C41.3831 41.4027 41.24 41.8068 40.9853 42.1047C40.7306 42.4025 40.3851 42.5699 40.0249 42.5699H3.01769C2.65688 42.5699 2.31075 42.4028 2.055 42.1051C1.79925 41.8075 1.65469 41.4035 1.65294 40.9815V30.6257C1.65294 29.7462 2.26906 29.0295 3.01769 29.0295L3.021 29.0218ZM35.5862 34.6394C35.3366 34.6618 35.1035 34.7936 34.9334 35.0083C34.7633 35.2231 34.6687 35.505 34.6686 35.7978C34.6686 36.1053 34.7729 36.4004 34.9585 36.6182C35.1442 36.8361 35.3961 36.959 35.6591 36.96C35.9226 36.96 36.1754 36.8376 36.3618 36.6196C36.5481 36.4016 36.6528 36.106 36.6528 35.7978C36.6519 35.4902 36.5469 35.1956 36.3606 34.9784C36.1743 34.7613 35.9221 34.6394 35.6591 34.6394C35.6348 34.6383 35.6105 34.6383 35.5862 34.6394V34.6394ZM6.64156 34.8292V36.7663H19.8816V34.8292H6.64156V34.8292ZM3.021 44.5109H40.0216C40.7736 44.5109 41.3798 45.2315 41.3798 46.1071V56.4745C41.3798 56.6831 41.3446 56.8896 41.2764 57.0823C41.2081 57.275 41.1081 57.4502 40.982 57.5977C40.8559 57.7452 40.7061 57.8622 40.5414 57.942C40.3766 58.0218 40.2 58.0629 40.0216 58.0629H3.021C2.66019 58.0629 2.31406 57.8958 2.05831 57.5981C1.80256 57.3005 1.658 56.8965 1.65625 56.4745V46.1071C1.65625 45.2276 2.27238 44.5109 3.021 44.5109V44.5109ZM35.4968 50.1285C35.2466 50.151 35.013 50.2833 34.8428 50.4989C34.6726 50.7145 34.5785 50.9973 34.5792 51.2908C34.5792 51.5983 34.6834 51.8934 34.8691 52.1112C35.0547 52.3291 35.3066 52.452 35.5696 52.453C35.8332 52.453 36.0859 52.3306 36.2723 52.1126C36.4587 51.8946 36.5634 51.599 36.5634 51.2908C36.5634 50.9825 36.4587 50.6869 36.2723 50.4689C36.0859 50.251 35.8332 50.1285 35.5696 50.1285C35.5453 50.1275 35.521 50.1275 35.4968 50.1285V50.1285ZM6.64156 50.3222V52.2593H19.8816V50.3222H6.64156V50.3222Z" fill="white"/>
</svg>
