<svg width="53" height="52" viewBox="0 0 53 52" fill="none" xmlns="http://www.w3.org/2000/svg">
<path d="M26.5 37C20.7103 37 16 32.0654 16 26C16 19.9346 20.7103 15 26.5 15C32.2897 15 37 19.9346 37 26C37 32.0654 32.2907 37 26.5 37ZM26.5 17.2C21.8684 17.2 18.1 21.1479 18.1 26C18.1 30.8521 21.8684 34.8 26.5 34.8C31.1315 34.8 34.9 30.8521 34.9 26C34.9 21.1479 31.1326 17.2 26.5 17.2Z" fill="white"/>
<path d="M28.7083 52H24.2917C22.4654 52 20.9792 50.5418 20.9792 48.75V44.7157C19.5657 44.3148 18.2024 43.7599 16.9147 43.0614L14.0064 45.916C12.7542 47.1445 10.5735 47.1423 9.32138 45.916L6.19769 42.8523C5.57162 42.2392 5.22713 41.4223 5.22713 40.5546C5.22713 39.6868 5.57162 38.87 6.19769 38.2568L9.10717 35.4012C8.39517 34.1389 7.83033 32.8019 7.42331 31.4156H3.3125C1.48621 31.4156 0 29.9574 0 28.1656V23.8323C0 22.9634 0.3445 22.1477 0.969458 21.5345C1.27653 21.2318 1.64169 20.9918 2.04386 20.8283C2.44602 20.6649 2.8772 20.5813 3.3125 20.5823H7.42442C7.83296 19.1978 8.39608 17.862 9.10937 16.5967L6.201 13.7421C5.58054 13.1323 5.23206 12.3059 5.23206 11.4443C5.23206 10.5827 5.58054 9.75633 6.201 9.14658L9.32358 6.08183C10.5746 4.8555 12.7564 4.85333 14.0086 6.08183L16.918 8.93642C18.2047 8.23879 19.5669 7.68465 20.9792 7.28433V3.25C20.9792 1.45817 22.4654 0 24.2917 0H28.7083C30.5346 0 32.0208 1.45817 32.0208 3.25V7.28433C33.4342 7.68517 34.7945 8.23875 36.082 8.93642L38.9914 6.08183C40.2436 4.8555 42.4243 4.85333 43.6764 6.08183L46.8001 9.1455C47.4262 9.75867 47.7707 10.5755 47.7707 11.4433C47.7707 12.311 47.4262 13.1278 46.8001 13.741L43.8917 16.5956C44.604 17.8583 45.1692 19.1956 45.5767 20.5823H49.6875C51.5138 20.5823 53 22.0404 53 23.8323V28.1656C53 29.0344 52.6555 29.8502 52.0305 30.4633C51.4056 31.0765 50.573 31.4156 49.6875 31.4156H45.5756C45.1673 32.802 44.6021 34.1392 43.8906 35.4023L46.799 38.2568C47.4195 38.8666 47.7679 39.693 47.7679 40.5546C47.7679 41.4162 47.4195 42.2426 46.799 42.8523L43.6764 45.9171C42.4243 47.1445 40.2436 47.1445 38.9914 45.9171L36.0842 43.0625C34.7972 43.7605 33.4346 44.315 32.0219 44.7157V48.75C32.0205 49.6117 31.6709 50.4377 31.0497 51.0469C30.4286 51.6561 29.5866 51.9989 28.7083 52V52ZM16.7359 40.6228C16.9335 40.6228 17.1334 40.6748 17.3111 40.781C18.8693 41.7169 20.567 42.4081 22.3428 42.8296C22.5836 42.8867 22.7978 43.0216 22.951 43.2126C23.1042 43.4036 23.1875 43.6395 23.1875 43.8826V48.75C23.1875 49.348 23.6833 49.8333 24.2917 49.8333H28.7083C29.3167 49.8333 29.8125 49.348 29.8125 48.75V43.8826C29.8125 43.6395 29.8958 43.4036 30.049 43.2126C30.2022 43.0216 30.4164 42.8867 30.6572 42.8296C32.4325 42.4084 34.1299 41.7176 35.6878 40.7821C36.125 40.521 36.6837 40.5871 37.0448 40.9403L40.5538 44.3842C40.9679 44.7893 41.7011 44.7915 42.1162 44.3842L45.2388 41.3194C45.4458 41.1163 45.5621 40.8408 45.5621 40.5535C45.5621 40.2662 45.4458 39.9907 45.2388 39.7876L41.7287 36.3437C41.5534 36.1717 41.4421 35.9469 41.4129 35.7054C41.3837 35.4639 41.4381 35.2197 41.5675 35.0123C42.5208 33.4838 43.2246 31.8185 43.6532 30.0766C43.7112 29.8401 43.8486 29.6297 44.0433 29.4792C44.238 29.3287 44.4786 29.2468 44.7265 29.2468H49.6875C49.8325 29.2473 49.9761 29.2198 50.1102 29.1657C50.2443 29.1116 50.3662 29.032 50.4688 28.9315C50.5714 28.831 50.6528 28.7116 50.7082 28.5802C50.7636 28.4487 50.792 28.3078 50.7917 28.1656V23.8323C50.7917 23.2343 50.2959 22.7489 49.6875 22.7489H44.7265C44.4786 22.7491 44.2378 22.6672 44.0431 22.5167C43.8484 22.3661 43.711 22.1556 43.6532 21.9191C43.2247 20.1772 42.5209 18.5118 41.5675 16.9834C41.4381 16.7759 41.3837 16.5318 41.4129 16.2903C41.4421 16.0488 41.5534 15.824 41.7287 15.652L45.2388 12.2081C45.4442 12.0055 45.5623 11.7271 45.5623 11.4422C45.5623 11.1573 45.4442 10.8777 45.2388 10.6762L42.1151 7.61258C41.9044 7.41605 41.6247 7.30646 41.3339 7.30646C41.0432 7.30646 40.7635 7.41605 40.5527 7.61258L37.0426 11.0565C36.8678 11.2293 36.6386 11.3391 36.3922 11.3678C36.1458 11.3965 35.8967 11.3425 35.6856 11.2147C34.1284 10.2796 32.4318 9.58912 30.6572 9.16825C30.4165 9.11175 30.2022 8.97732 30.049 8.78666C29.8957 8.596 29.8124 8.36023 29.8125 8.11742V3.25C29.8125 2.652 29.3167 2.16667 28.7083 2.16667H24.2917C23.6833 2.16667 23.1875 2.652 23.1875 3.25V8.11742C23.1875 8.36046 23.1042 8.59644 22.951 8.78742C22.7978 8.97841 22.5836 9.1133 22.3428 9.17042C20.5675 9.59123 18.8702 10.2817 17.3122 11.2168C17.101 11.3439 16.8523 11.3973 16.6063 11.3686C16.3603 11.3399 16.1313 11.2307 15.9563 11.0587L12.4462 7.61475C12.2354 7.41822 11.9557 7.30863 11.665 7.30863C11.3742 7.30863 11.0945 7.41822 10.8838 7.61475L7.76229 10.6784C7.55529 10.8816 7.43901 11.1571 7.43901 11.4443C7.43901 11.7316 7.55529 12.0071 7.76229 12.2103L11.2724 15.6542C11.4477 15.8261 11.559 16.051 11.5882 16.2925C11.6174 16.534 11.563 16.7781 11.4336 16.9856C10.4804 18.5137 9.77659 20.1787 9.34787 21.9202C9.28987 22.1566 9.15248 22.367 8.9578 22.5175C8.76312 22.6681 8.52249 22.7499 8.27462 22.75H3.3125C3.16743 22.7494 3.02367 22.777 2.88952 22.8312C2.75537 22.8854 2.63346 22.965 2.53083 23.0656C2.42819 23.1662 2.34686 23.2858 2.29151 23.4173C2.23616 23.5489 2.2079 23.6899 2.20833 23.8323V28.1656C2.20833 28.7636 2.7041 29.2489 3.3125 29.2489H8.27352C8.78365 29.2489 9.22752 29.5913 9.34677 30.0788C9.77566 31.8202 10.4794 33.4852 11.4325 35.0133C11.5619 35.2208 11.6163 35.4649 11.5871 35.7065C11.5578 35.948 11.4466 36.1728 11.2713 36.3448L7.76119 39.7898C7.55581 39.9923 7.43767 40.2708 7.43767 40.5557C7.43767 40.8406 7.55581 41.1201 7.76119 41.3216L10.8849 44.3853C11.0956 44.5818 11.3753 44.6914 11.6661 44.6914C11.9568 44.6914 12.2365 44.5818 12.4473 44.3853L15.9563 40.9413C16.0582 40.8402 16.1796 40.7599 16.3135 40.7052C16.4473 40.6506 16.5909 40.6226 16.7359 40.6228Z" fill="white"/>
</svg>
