<svg width="53" height="61" viewBox="0 0 53 61" fill="none" xmlns="http://www.w3.org/2000/svg">
<path fill-rule="evenodd" clip-rule="evenodd" d="M43.7256 34.0501H38.1605C37.3649 34.0501 36.8353 33.447 36.8353 32.5433C36.8353 31.6396 37.3658 31.0364 38.1605 31.0364H43.7256C45.0499 31.0364 46.375 30.7358 47.7002 30.4333C48.495 30.1327 49.0254 29.8311 49.5549 29.5296C50.0853 29.229 50.3506 28.3243 50.3506 27.7221C50.3506 27.119 50.0853 26.5158 49.8201 25.9137C48.495 24.1063 46.1098 22.901 42.9299 21.6957C42.6647 21.6957 42.6647 21.3941 42.3995 21.3941C41.6048 20.791 41.0752 19.8873 40.81 18.9835C40.81 17.7773 41.3404 16.8735 42.1352 16.2714C43.9899 13.2577 45.0499 10.5465 44.7855 8.13497C44.5203 6.6291 43.9899 5.42381 42.9299 4.5191C41.0752 3.01225 38.4257 3.01225 36.8345 4.5191C35.7754 5.42381 35.245 6.6291 34.9798 8.13497C34.7154 10.5455 35.7754 13.2577 37.6301 16.2714C38.1605 16.8745 37.8953 17.7783 37.3649 18.3804C36.8345 18.9835 36.0397 18.682 35.5102 18.0798C32.8598 14.463 31.7999 10.8471 32.3303 7.53282C32.5955 5.42381 33.6554 3.31382 35.245 2.10853C37.8953 -0.302045 41.8708 -0.302045 44.5203 2.10853C46.1098 3.61539 47.1698 5.42381 47.435 7.53282C47.7002 10.8471 46.6402 14.464 44.2551 18.0798C43.9899 18.3804 43.9899 18.682 43.7247 18.682C43.7247 18.682 43.9899 18.682 43.9899 18.9835C47.435 20.1888 50.0853 21.9963 51.6749 24.1053C52.4705 25.01 53 26.5168 53 28.0237C53.0001 28.8422 52.8325 29.6495 52.5106 30.3817C52.1886 31.1138 51.7212 31.7506 51.1453 32.2417C50.3506 32.8448 49.5549 33.448 48.495 33.7486C46.9054 33.7486 45.3151 34.0501 43.7256 34.0501V34.0501Z" fill="white"/>
<path fill-rule="evenodd" clip-rule="evenodd" d="M14.8395 34.0501H9.27448C7.41976 34.0501 5.83024 33.7485 4.50507 33.1464C3.44423 32.8448 2.64948 32.2417 1.85472 31.6395C0.794756 30.7358 0 28.9274 0 27.4205C0 25.9137 0.530417 24.7084 1.32517 23.5031C3.1799 21.3941 5.82937 19.8872 9.27448 18.682C9.27448 18.682 9.53969 18.682 9.53969 18.3804C9.53969 18.3804 9.27448 18.0798 9.27448 17.7772C6.625 14.1634 5.30069 10.2459 5.83111 7.23222C6.09545 5.12321 7.15542 3.01322 8.7458 1.80793C11.3961 -0.602644 15.3708 -0.602644 18.0211 1.80793C19.6107 3.31479 20.6706 5.12321 20.9358 7.23222C21.201 10.5465 20.1411 14.1634 17.7559 17.7792C17.2255 18.3824 16.4308 18.3824 15.9012 18.0808C15.3708 17.4777 15.1056 16.5739 15.636 15.9708C17.7559 12.9581 18.5507 9.94436 18.2855 7.83536C18.2855 6.3285 17.4907 5.12321 16.4308 4.21851C14.576 2.71264 12.1909 2.71264 10.3353 4.21851C9.27535 5.12321 8.48059 6.3285 8.48059 7.53379C8.21538 9.94436 9.27535 12.6555 11.1309 15.6692C11.6614 16.5739 12.4561 17.4777 12.1909 18.3814C12.1909 19.5876 11.3961 20.1898 10.6005 20.7919C10.6005 20.7919 10.3362 21.0935 10.0701 21.0935C7.15542 22.6004 5.03549 23.8057 3.44597 25.6141C3.18076 26.2172 2.91556 26.8194 2.91556 27.4215C2.91556 28.3252 3.18076 28.9284 3.71031 29.2299C4.24073 29.5305 4.77115 29.8331 5.5659 30.1337C6.62587 30.7368 7.95104 31.0374 9.27535 31.0374H14.8404C15.636 31.0374 16.1656 31.6405 16.1656 32.5442C16.1656 33.448 15.6351 34.0511 14.8404 34.0511L14.8395 34.0501Z" fill="white"/>
<path fill-rule="evenodd" clip-rule="evenodd" d="M32.065 60.2658H21.2002C18.815 60.2658 16.6951 59.9642 14.8395 59.0605C13.5152 58.4574 12.4552 57.8552 11.6596 56.9515C10.0701 56.0478 9.27448 53.9378 9.27448 51.8288C9.27448 50.0204 9.80489 48.5135 10.8649 47.0076C12.9848 44.2955 16.4299 42.1855 21.2002 40.3781L21.9949 39.4743L21.2002 38.5696C17.7551 33.4479 16.1656 28.9273 16.6951 24.7083C17.2255 21.9962 18.2846 19.5866 20.4045 17.7772C23.8496 15.066 29.1503 15.066 32.3302 17.7772C34.4502 19.5866 35.7753 21.9962 36.0397 24.7083C36.5701 28.9273 34.9797 33.7485 31.7998 38.5706C31.0051 39.4743 31.0051 39.7749 31.0051 39.7749C31.0051 39.7749 31.5355 40.0765 31.7998 40.3781C36.5701 42.1855 40.0152 44.2955 42.1351 47.0076C43.1951 48.2129 43.7255 50.0204 43.7255 51.8288C43.7255 53.9378 42.9299 56.0478 41.6047 57.2531C40.81 58.1568 39.75 58.7589 38.4248 59.3621C36.3049 59.9652 34.185 60.2658 32.065 60.2658V60.2658ZM26.5 18.3803C24.9096 18.3803 23.3201 18.9835 21.9949 19.8872C20.4045 21.0935 19.6098 22.9009 19.3446 25.0099C19.0802 28.3242 20.4054 32.2416 23.0549 36.4606C23.8496 37.3644 24.6453 38.2691 24.3801 39.7749C24.3801 40.9812 23.3192 41.8849 22.5253 42.7886C22.5253 42.7886 22.2601 43.0902 21.9949 43.0902C17.4907 44.5971 14.5752 46.7061 12.4552 49.1166C12.19 49.7198 11.9248 50.9251 11.9248 51.8288C11.9248 53.0341 12.4552 54.2394 13.25 54.8415C13.7804 55.4447 14.8395 56.0478 15.9003 56.3484C17.4899 56.9515 19.3446 57.2531 21.2002 57.2531H32.065C33.9198 57.2531 35.7753 56.9515 37.3649 56.3484C38.4257 56.0478 39.2204 55.4447 40.0152 54.8415C40.81 54.2394 41.3404 53.0341 41.3404 51.8288C41.3404 50.9251 41.0752 49.7198 40.2795 49.1166C38.4248 46.7061 35.2449 44.8976 30.7407 43.0902C30.4746 43.0902 30.4746 42.7886 30.2103 42.7886C29.4147 41.8849 28.3547 40.9802 28.3547 39.7749C28.3547 38.5696 29.1503 37.3644 29.9451 36.4606C32.5954 32.5432 33.9198 28.3242 33.6554 25.0099C33.3902 22.9009 32.5946 21.3941 31.0051 19.8882C29.6799 18.9835 28.0904 18.3803 26.5 18.3803V18.3803Z" fill="white"/>
</svg>
